<svg width="36" height="49" viewBox="0 0 36 49" fill="none" xmlns="http://www.w3.org/2000/svg">
<g id="fa-solid:award" clip-path="url(#clip0_993_514)">
<path id="Vector" d="M9.06374 34.1531C8.25268 33.3384 8.67548 33.5681 6.71921 33.0421C5.83161 32.8031 5.05134 32.3437 4.34574 31.7934L0.111208 42.2221C-0.298526 43.2318 0.466808 44.3287 1.55134 44.2874L6.46908 44.099L9.85148 47.6878C10.5981 48.479 11.9085 48.2324 12.3183 47.2228L17.1763 35.2584C16.1645 35.8246 15.0417 36.1565 13.8807 36.1565C12.0607 36.1565 10.3508 35.445 9.06374 34.1531ZM35.7272 42.2221L31.4927 31.7934C30.7871 32.3446 30.0068 32.8031 29.1192 33.0421C27.1527 33.5709 27.5839 33.3403 26.7747 34.1531C25.4876 35.445 23.7768 36.1565 21.9568 36.1565C20.7957 36.1565 19.6729 35.8237 18.6612 35.2584L23.5192 47.2228C23.9289 48.2324 25.2403 48.479 25.986 47.6878L29.3693 44.099L34.2871 44.2874C35.3716 44.3287 36.1369 43.2309 35.7272 42.2221ZM24.5459 32.0315C25.972 30.5737 26.1353 30.6993 28.1663 30.1434C29.4627 29.7881 30.4763 28.7521 30.8235 27.4265C31.5216 24.764 31.3405 25.0856 33.2455 23.1375C34.1947 22.1671 34.5652 20.7525 34.218 19.4268C33.5208 16.7662 33.5199 17.1375 34.218 14.474C34.5652 13.1484 34.1947 11.7337 33.2455 10.7634C31.3405 8.81527 31.5216 9.13589 30.8235 6.47433C30.4763 5.1487 29.4627 4.11277 28.1663 3.75745C25.5641 3.04402 25.8777 3.23058 23.9709 1.28152C23.0217 0.311205 21.6376 -0.0684823 20.3412 0.28683C17.74 0.99933 18.1031 1.00027 15.4972 0.28683C14.2008 -0.0684823 12.8167 0.310268 11.8675 1.28152C9.96254 3.22964 10.2761 3.04402 7.67308 3.75745C6.37668 4.11277 5.36308 5.1487 5.01588 6.47433C4.31868 9.13589 4.49881 8.81527 2.59387 10.7634C1.64467 11.7337 1.27321 13.1484 1.62134 14.474C2.31854 17.1328 2.31947 16.7615 1.62134 19.4259C1.27414 20.7515 1.64467 22.1662 2.59387 23.1375C4.49881 25.0856 4.31774 24.764 5.01588 27.4265C5.36308 28.7521 6.37668 29.7881 7.67308 30.1434C9.76188 30.7153 9.91774 30.6253 11.2925 32.0315C12.5273 33.2943 14.4509 33.5203 15.9349 32.5771C16.5284 32.1987 17.2168 31.9978 17.9197 31.9978C18.6226 31.9978 19.311 32.1987 19.9044 32.5771C21.3875 33.5203 23.3111 33.2943 24.5459 32.0315ZM9.11414 16.6528C9.11414 11.6812 13.0565 7.65089 17.9192 7.65089C22.7819 7.65089 26.7243 11.6812 26.7243 16.6528C26.7243 21.6243 22.7819 25.6546 17.9192 25.6546C13.0565 25.6546 9.11414 21.6243 9.11414 16.6528Z" fill="#0D5C63"/>
</g>
<defs>
<clipPath id="clip0_993_514">
<rect width="35.84" height="48" fill="white" transform="translate(0 0.158203)"/>
</clipPath>
</defs>
</svg>
