<svg width="48" height="28" viewBox="0 0 48 28" fill="none" xmlns="http://www.w3.org/2000/svg">
<g id="bx:bx-stats" clip-path="url(#clip0_993_510)">
<path id="Vector" d="M43.1506 12.4401C42.5751 12.4443 42.005 12.5542 41.4678 12.7643L35.7275 7.97963C35.8687 7.45801 35.9692 6.9169 35.9692 6.34654C35.9692 2.96824 33.3026 0.25293 29.9848 0.25293C26.667 0.25293 24.0003 2.96824 24.0003 6.34654C24.0003 7.31177 24.2397 8.21118 24.6275 9.02041L17.664 17.4003C17.3852 17.3472 17.1025 17.3187 16.819 17.315C16.3905 17.315 15.9859 17.3882 15.5934 17.4954L9.4581 11.2482C9.56582 10.8509 9.63763 10.439 9.63763 10.0027C9.63763 7.30202 7.50238 5.12782 4.85006 5.12782C2.19775 5.12782 0.0625 7.30202 0.0625 10.0027C0.0625 12.7034 2.19775 14.8776 4.85006 14.8776C5.27855 14.8776 5.6831 14.8045 6.07568 14.6972L12.2109 20.9444C12.0959 21.3493 12.0355 21.7684 12.0314 22.1899C12.0314 24.8906 14.1667 27.0648 16.819 27.0648C19.4713 27.0648 21.6065 24.8906 21.6065 22.1899C21.6065 21.6122 21.4916 21.0687 21.3121 20.5544L28.2852 12.1647C28.8286 12.3256 29.3911 12.4401 29.9848 12.4401C30.9295 12.4348 31.8593 12.2 32.6969 11.7552L38.4396 16.5399C38.3946 16.7959 38.369 17.055 38.363 17.315C38.363 20.0157 40.4983 22.1899 43.1506 22.1899C45.8029 22.1899 47.9381 20.0157 47.9381 17.315C47.9381 14.6143 45.8029 12.4401 43.1506 12.4401Z" fill="#0D5C63"/>
</g>
<defs>
<clipPath id="clip0_993_510">
<rect width="48" height="27.0968" fill="white" transform="translate(0 0.158203)"/>
</clipPath>
</defs>
</svg>
