<svg width="48" height="41" viewBox="0 0 48 41" fill="none" xmlns="http://www.w3.org/2000/svg">
<g id="carbon:tool-box" clip-path="url(#clip0_993_518)">
<path id="Vector" d="M42.5886 8.68374H37.519V3.61412C37.519 2.71776 37.1629 1.85811 36.5291 1.22428C35.8953 0.590454 35.0356 0.234375 34.1393 0.234375H13.8608C12.9644 0.234375 12.1048 0.590454 11.4709 1.22428C10.8371 1.85811 10.481 2.71776 10.481 3.61412V8.68374H5.41142C4.06687 8.68374 2.77739 9.21786 1.82665 10.1686C0.875916 11.1193 0.341797 12.4088 0.341797 13.7534V37.4116C0.341797 38.308 0.697876 39.1676 1.3317 39.8014C1.96553 40.4353 2.82518 40.7913 3.72154 40.7913H44.2785C45.1749 40.7913 46.0345 40.4353 46.6683 39.8014C47.3022 39.1676 47.6582 38.308 47.6582 37.4116V13.7534C47.6582 12.4088 47.1241 11.1193 46.1734 10.1686C45.2227 9.21786 43.9332 8.68374 42.5886 8.68374ZM13.8608 3.61412H34.1393V8.68374H13.8608V3.61412ZM44.2785 37.4116H3.72154V22.2027H17.2405V30.6521H30.7595V22.2027H44.2785V37.4116ZM20.6203 22.2027H27.3798V27.2723H20.6203V22.2027ZM3.72154 18.823V13.7534C3.72154 13.3052 3.89958 12.8754 4.2165 12.5584C4.53341 12.2415 4.96323 12.0635 5.41142 12.0635H42.5886C43.0368 12.0635 43.4666 12.2415 43.7836 12.5584C44.1005 12.8754 44.2785 13.3052 44.2785 13.7534V18.823H3.72154Z" fill="#0D5C63"/>
</g>
<defs>
<clipPath id="clip0_993_518">
<rect width="48" height="40.7089" fill="white" transform="translate(0 0.158203)"/>
</clipPath>
</defs>
</svg>
