<svg width="48" height="45" viewBox="0 0 48 45" fill="none" xmlns="http://www.w3.org/2000/svg">
<g id="clarity:users-line" clip-path="url(#clip0_993_496)">
<path id="Vector" d="M23.8406 20.9607C28.1448 20.9607 31.4925 17.4653 31.4925 13.1756C31.4925 8.88579 27.9854 5.54932 23.6812 5.54932C19.377 5.54932 16.0293 9.04467 16.0293 13.1756C16.0293 17.4653 19.5364 20.9607 23.8406 20.9607ZM23.6812 8.72692C23.8406 8.72692 23.8406 8.72692 23.6812 8.72692C26.2318 8.72692 28.3042 10.7924 28.3042 13.3344C28.3042 15.8765 26.2318 17.7831 23.6812 17.7831C21.1306 17.7831 19.2176 15.7176 19.2176 13.3344C19.2176 10.7924 21.29 8.72692 23.6812 8.72692Z" fill="#0D5C63"/>
<path id="Vector_2" d="M47.4335 20.0069C44.4046 17.3059 40.4193 15.876 36.2745 16.0349H34.9992C34.6804 17.3059 34.2021 18.4181 33.5645 19.3714C34.5209 19.2125 35.318 19.2125 36.2745 19.2125C39.3034 19.0536 42.3323 20.0069 44.7235 21.7546V33.1939H47.9118V20.4835L47.4335 20.0069Z" fill="#0D5C63"/>
<path id="Vector_3" d="M32.6088 5.86646C33.4058 3.9599 35.6376 3.00662 37.71 3.80102C39.623 4.59542 40.5795 6.81974 39.7824 8.88518C39.1448 10.3151 37.71 11.2684 36.2753 11.2684C35.9565 11.2684 35.4782 11.2684 35.1594 11.1095C35.3188 11.9039 35.3188 12.6983 35.3188 13.3338V14.2871C35.6376 14.2871 35.9565 14.446 36.2753 14.446C40.2607 14.446 43.449 11.2684 43.449 7.45526C43.449 3.48326 40.2607 0.305664 36.4347 0.305664C33.8841 0.305664 31.6523 1.5767 30.377 3.80102C31.174 4.27766 31.9711 4.91318 32.6088 5.86646Z" fill="#0D5C63"/>
<path id="Vector_4" d="M14.4352 19.5306C13.7975 18.5773 13.3193 17.4651 13.0005 16.1941H11.7252C7.58037 16.0352 3.59501 17.4651 0.566134 20.0072L0.0878906 20.4839V33.1943H3.27618V21.7549C5.82681 20.0072 8.69628 19.0539 11.7252 19.2128C12.6816 19.2128 13.6381 19.3717 14.4352 19.5306Z" fill="#0D5C63"/>
<path id="Vector_5" d="M11.7246 14.2877C12.0435 14.2877 12.3623 14.2877 12.6811 14.1288V13.1756C12.6811 12.3812 12.6811 11.5868 12.8405 10.9512C12.5217 11.1101 12.0435 11.1101 11.7246 11.1101C9.65225 11.1101 7.89869 9.36244 7.89869 7.297C7.89869 5.23157 9.65225 3.48389 11.7246 3.48389C13.3188 3.48389 14.7535 4.43717 15.3912 5.86709C16.0288 5.07269 16.9853 4.27829 17.7824 3.64277C15.71 0.306288 11.4058 -0.805871 8.0581 1.25957C4.7104 3.32501 3.59449 7.61476 5.66688 10.9512C6.9422 13.0167 9.174 14.2877 11.7246 14.2877Z" fill="#0D5C63"/>
<path id="Vector_6" d="M36.9128 29.5399L36.594 29.0633C33.4057 25.5679 28.9421 23.5025 24.1596 23.6614C19.3772 23.5025 14.7542 25.5679 11.5659 29.0633L11.2471 29.5399V41.6148C11.2471 43.0447 12.363 44.3158 13.9571 44.3158H34.3622C35.7969 44.3158 37.0722 43.0447 37.0722 41.6148V29.5399H36.9128ZM33.7245 41.1382H14.4354V30.6521C16.986 28.11 20.4931 26.839 24.1596 26.839C27.6668 26.6801 31.1739 28.11 33.7245 30.6521V41.1382Z" fill="#0D5C63"/>
</g>
<defs>
<clipPath id="clip0_993_496">
<rect width="48" height="44.2105" fill="white" transform="translate(0 0.158203)"/>
</clipPath>
</defs>
</svg>
