<svg width="48" height="39" viewBox="0 0 48 39" fill="currentColor" xmlns="http://www.w3.org/2000/svg">
<path id="Vector" d="M29.1416 9.43018H41.1395V12.8755H29.1416V9.43018Z"/>
<path id="Vector_2" d="M29.1416 18.0435H41.1395V21.4888H29.1416V18.0435Z"/>
<path id="Vector_3" d="M29.1416 26.6567H41.1395V30.1021H29.1416V26.6567Z"/>
<path id="Vector_4" d="M44.5674 0.817383H3.43187C2.52299 0.818295 1.65161 1.18158 1.00893 1.8275C0.366264 2.47343 0.00481376 3.34923 0.00390625 4.2627V35.2706C0.00481376 36.184 0.366264 37.0598 1.00893 37.7058C1.65161 38.3517 2.52299 38.715 3.43187 38.7159H44.5674C45.4761 38.7145 46.3472 38.3511 46.9898 37.7053C47.6324 37.0594 47.994 36.1839 47.9953 35.2706V4.2627C47.9944 3.34923 47.633 2.47343 46.9903 1.8275C46.3477 1.18158 45.4763 0.818295 44.5674 0.817383ZM3.43187 4.2627H22.2856V35.2706H3.43187V4.2627ZM25.7136 35.2706V4.2627H44.5674L44.5708 35.2706H25.7136Z"/>
</svg>
