<svg width="48" height="49" viewBox="0 0 48 49" fill="currentColor" xmlns="http://www.w3.org/2000/svg">
<path id="Vector" opacity="0.15" d="M43.6503 14.5562H4.35031C4.33231 14.5562 4.32031 14.568 4.32031 14.5858V19.9911C4.32031 23.5353 7.26031 26.4098 10.8783 26.4098C13.3203 26.4098 15.4503 25.1059 16.5843 23.1678C16.7583 22.8656 17.0883 22.6759 17.4423 22.6759C17.7963 22.6759 18.1203 22.8656 18.3003 23.1678C19.4283 25.1059 21.5583 26.4098 24.0003 26.4098C26.4483 26.4098 28.5843 25.1 29.7063 23.156C29.8803 22.8596 30.1983 22.6759 30.5403 22.6759H30.5763C30.9243 22.6759 31.2363 22.8596 31.4103 23.156C32.5383 25.1 34.6743 26.4098 37.1223 26.4098C40.7403 26.4098 43.6803 23.5353 43.6803 19.9911V14.5858C43.6803 14.568 43.6683 14.5562 43.6503 14.5562Z" fill="#0D5C63"/>
<path id="Vector_2" d="M46.2 10.295V2.70274C46.2 1.65369 45.342 0.806152 44.28 0.806152H3.72003C2.65804 0.806152 1.80004 1.65369 1.80004 2.70274V10.295C0.798036 10.3543 3.71756e-05 11.1781 3.71756e-05 12.1857V19.9913C-0.00380525 21.4259 0.290253 22.8459 0.864037 24.1638C1.12204 24.7683 1.44004 25.3373 1.80004 25.8766V46.3242C1.80004 47.3673 2.65804 48.2208 3.72003 48.2208H44.28C45.342 48.2208 46.2 47.3732 46.2 46.3242V25.8766C46.5657 25.3359 46.879 24.7625 47.136 24.1638C47.706 22.8421 48 21.4374 48 19.9913V12.1857C48 11.1781 47.202 10.3543 46.2 10.295ZM6.12003 5.07347H41.88V10.2891H6.12003V5.07347ZM27.84 43.9594H20.16V37.7896H27.84V43.9594ZM41.904 43.9594H31.68V35.893C31.68 34.8439 30.822 33.9964 29.76 33.9964H18.24C17.178 33.9964 16.32 34.8439 16.32 35.893V43.9594H6.12003V29.6046C6.29403 29.6876 6.47403 29.7706 6.66003 29.8417C7.99803 30.3988 9.42003 30.6774 10.884 30.6774C12.348 30.6774 13.764 30.3988 15.108 29.8417C15.936 29.4979 16.716 29.0593 17.43 28.5319C17.442 28.5259 17.454 28.5259 17.466 28.5319C18.1822 29.0616 18.9622 29.5016 19.788 29.8417C21.126 30.3988 22.548 30.6774 24.012 30.6774C25.476 30.6774 26.892 30.3988 28.236 29.8417C29.064 29.4979 29.844 29.0593 30.558 28.5319C30.57 28.5259 30.582 28.5259 30.594 28.5319C31.3102 29.0616 32.0902 29.5016 32.916 29.8417C34.254 30.3988 35.676 30.6774 37.14 30.6774C38.604 30.6774 40.02 30.3988 41.364 29.8417C41.544 29.7646 41.724 29.6876 41.904 29.6046V43.9594ZM43.68 19.9913C43.68 23.5355 40.74 26.4101 37.122 26.4101C34.674 26.4101 32.538 25.1002 31.41 23.1562C31.236 22.8599 30.924 22.6762 30.576 22.6762H30.54C30.198 22.6762 29.88 22.8599 29.706 23.1562C29.1304 24.1479 28.2992 24.9713 27.297 25.5428C26.2948 26.1143 25.1572 26.4135 24 26.4101C21.558 26.4101 19.428 25.1062 18.3 23.1681C18.12 22.8658 17.796 22.6762 17.442 22.6762C17.088 22.6762 16.758 22.8658 16.584 23.1681C16.005 24.1559 15.1728 24.9757 14.1711 25.5448C13.1694 26.114 12.0336 26.4124 10.878 26.4101C7.26003 26.4101 4.32003 23.5355 4.32003 19.9913V14.586C4.32003 14.5682 4.33203 14.5564 4.35003 14.5564H43.65C43.668 14.5564 43.68 14.5682 43.68 14.586V19.9913Z"/>
</svg>
