<svg width="48" height="41" viewbox="0 0 48 41" fill="currentColor" xmlns="http://www.w3.org/2000/svg">
<path id="Vector" d="M42.5886 8.57193H37.519V3.50231C37.519 2.60594 37.1629 1.74629 36.5291 1.11246C35.8953 0.478638 35.0356 0.122559 34.1393 0.122559H13.8608C12.9644 0.122559 12.1048 0.478638 11.4709 1.11246C10.8371 1.74629 10.481 2.60594 10.481 3.50231V8.57193H5.41142C4.06687 8.57193 2.77739 9.10604 1.82665 10.0568C0.875916 11.0075 0.341797 12.297 0.341797 13.6415V37.2998C0.341797 38.1961 0.697876 39.0558 1.3317 39.6896C1.96553 40.3234 2.82518 40.6795 3.72154 40.6795H44.2785C45.1749 40.6795 46.0345 40.3234 46.6683 39.6896C47.3022 39.0558 47.6582 38.1961 47.6582 37.2998V13.6415C47.6582 12.297 47.1241 11.0075 46.1734 10.0568C45.2227 9.10604 43.9332 8.57193 42.5886 8.57193ZM13.8608 3.50231H34.1393V8.57193H13.8608V3.50231ZM44.2785 37.2998H3.72154V22.0909H17.2405V30.5403H30.7595V22.0909H44.2785V37.2998ZM20.6203 22.0909H27.3798V27.1605H20.6203V22.0909ZM3.72154 18.7112V13.6415C3.72154 13.1934 3.89958 12.7635 4.2165 12.4466C4.53341 12.1297 4.96323 11.9517 5.41142 11.9517H42.5886C43.0368 11.9517 43.4666 12.1297 43.7836 12.4466C44.1005 12.7635 44.2785 13.1934 44.2785 13.6415V18.7112H3.72154Z"/>
</svg>