<svg width="25" height="31" viewBox="0 0 25 31" fill="none" xmlns="http://www.w3.org/2000/svg">
<g id="bx:bx-map" clip-path="url(#clip0_964_17688)">
<path id="Vector" d="M12.0302 18.538C15.3392 18.538 18.0301 15.847 18.0301 12.538C18.0301 9.22906 15.3392 6.53809 12.0302 6.53809C8.72124 6.53809 6.03027 9.22906 6.03027 12.538C6.03027 15.847 8.72124 18.538 12.0302 18.538ZM12.0302 9.53805C13.6847 9.53805 15.0302 10.8835 15.0302 12.538C15.0302 14.1925 13.6847 15.538 12.0302 15.538C10.3757 15.538 9.03024 14.1925 9.03024 12.538C9.03024 10.8835 10.3757 9.53805 12.0302 9.53805Z" fill="#8EC2F2"/>
<path id="Vector_2" d="M11.1603 30.2588C11.4142 30.4401 11.7183 30.5375 12.0303 30.5375C12.3422 30.5375 12.6464 30.4401 12.9003 30.2588C13.3563 29.9363 24.0736 22.1979 24.0301 12.538C24.0301 5.92153 18.6467 0.538086 12.0303 0.538086C5.41385 0.538086 0.0304055 5.92153 0.0304055 12.5305C-0.013094 22.1979 10.7043 29.9363 11.1603 30.2588ZM12.0303 3.53805C16.9937 3.53805 21.0302 7.57451 21.0302 12.5455C21.0617 19.2024 14.4482 25.1798 12.0303 27.1403C9.6138 25.1783 2.99887 19.1994 3.03037 12.538C3.03037 7.57451 7.06683 3.53805 12.0303 3.53805Z" fill="#8EC2F2"/>
</g>
<defs>
<clipPath id="clip0_964_17688">
<rect width="24" height="29.9997" fill="white" transform="translate(0.0302734 0.538086)"/>
</clipPath>
</defs>
</svg>
