<svg width="25" height="25" viewBox="0 0 25 25" fill="none" xmlns="http://www.w3.org/2000/svg">
<g id="bx:bx-phone" clip-path="url(#clip0_964_17684)">
<path id="Vector" d="M19.0637 12.4157C18.9523 12.3041 18.8201 12.2157 18.6745 12.1553C18.5289 12.0949 18.3729 12.0638 18.2153 12.0638C18.0577 12.0638 17.9016 12.0949 17.756 12.1553C17.6105 12.2157 17.4782 12.3041 17.3669 12.4157L15.4541 14.3285C14.5673 14.0645 12.9125 13.4645 11.8637 12.4157C10.8149 11.3669 10.215 9.71211 9.95095 8.82532L11.8637 6.91254C11.9753 6.80119 12.0638 6.66895 12.1241 6.52337C12.1845 6.3778 12.2156 6.22174 12.2156 6.06415C12.2156 5.90655 12.1845 5.75049 12.1241 5.60492C12.0638 5.45934 11.9753 5.3271 11.8637 5.21575L7.06378 0.415803C6.95244 0.304269 6.8202 0.215784 6.67462 0.155412C6.52904 0.0950398 6.37299 0.0639648 6.21539 0.0639648C6.05779 0.0639648 5.90174 0.0950398 5.75616 0.155412C5.61059 0.215784 5.47834 0.304269 5.367 0.415803L2.11263 3.67017C1.65664 4.12617 1.39984 4.75256 1.40944 5.39215C1.43704 7.10094 1.88944 13.0361 6.56699 17.7136C11.2445 22.3912 17.1797 22.8424 18.8897 22.8712H18.9233C19.5569 22.8712 20.1557 22.6216 20.6092 22.168L23.8636 18.9136C23.9751 18.8023 24.0636 18.67 24.124 18.5245C24.1844 18.3789 24.2155 18.2228 24.2155 18.0652C24.2155 17.9076 24.1844 17.7516 24.124 17.606C24.0636 17.4604 23.9751 17.3282 23.8636 17.2168L19.0637 12.4157ZM18.9113 20.47C17.4137 20.4448 12.2897 20.0428 8.26377 16.0156C4.22461 11.9765 3.83342 6.83454 3.80942 5.36695L6.21539 2.96098L9.31856 6.06415L7.76698 7.61573C7.62593 7.75667 7.52223 7.93053 7.46524 8.12161C7.40825 8.31268 7.39978 8.51495 7.44058 8.71012C7.46938 8.84812 8.17377 12.1205 10.1658 14.1125C12.1577 16.1044 15.4301 16.8088 15.5681 16.8376C15.7632 16.8796 15.9656 16.8718 16.1569 16.815C16.3481 16.7581 16.522 16.6541 16.6625 16.5124L18.2153 14.9609L21.3184 18.064L18.9113 20.47Z" fill="#8EC2F2"/>
</g>
<defs>
<clipPath id="clip0_964_17684">
<rect width="24" height="24" fill="white" transform="translate(0.21582 0.0639648)"/>
</clipPath>
</defs>
</svg>
