<svg width="24" height="27" viewBox="0 0 24 27" fill="none" xmlns="http://www.w3.org/2000/svg">
<g id="carbon:send-alt" clip-path="url(#clip0_964_17693)">
<path id="Vector" d="M23.71 1.35354C23.575 1.21384 23.4045 1.11712 23.2185 1.07475C23.0325 1.03237 22.8388 1.04611 22.66 1.11434L0.660001 9.43434C0.470269 9.50919 0.306921 9.64229 0.191652 9.81598C0.0763829 9.98966 0.0146484 10.1957 0.0146484 10.4067C0.0146484 10.6178 0.0763829 10.8238 0.191652 10.9975C0.306921 11.1712 0.470269 11.3043 0.660001 11.3791L10.26 15.3727L14.1 25.3567C14.1721 25.5454 14.2958 25.708 14.4557 25.8244C14.6157 25.9408 14.8049 26.006 15 26.0119C15.2021 26.0076 15.3982 25.9397 15.5624 25.8172C15.7266 25.6947 15.8513 25.5232 15.92 25.3255L23.92 2.44554C23.9881 2.26154 24.0046 2.06119 23.9674 1.86785C23.9302 1.6745 23.8409 1.49614 23.71 1.35354ZM15 22.0599L12.21 14.7799L17 9.79834L15.59 8.33194L10.76 13.3551L3.8 10.4119L21.33 3.82874L15 22.0599Z" fill="#8EC2F2"/>
</g>
<defs>
<clipPath id="clip0_964_17693">
<rect width="24" height="26" fill="white" transform="translate(0 0.0119629)"/>
</clipPath>
</defs>
</svg>
