<svg width="32" height="33" viewBox="0 0 32 33" fill="none" xmlns="http://www.w3.org/2000/svg">
<g id="icn settings .icn-md">
<path id="Vector" fill-rule="evenodd" clip-rule="evenodd" d="M18.2367 8.82254C17.7729 9.1441 17.2497 9.37007 16.6976 9.48726C16.1456 9.60445 15.5757 9.61051 15.0212 9.50509C14.4668 9.39967 13.9389 9.18488 13.4684 8.87325C12.9979 8.56163 12.5941 8.15941 12.2807 7.69007C11.9673 7.22072 11.7505 6.69366 11.643 6.13963C11.5354 5.5856 11.5393 5.01571 11.6544 4.4632C11.7695 3.91069 11.9935 3.38664 12.3133 2.92163C12.6331 2.45662 13.0423 2.05995 13.517 1.75479C14.4544 1.13569 15.5986 0.912839 16.6998 1.13496C17.8009 1.35707 18.7693 2.00609 19.3933 2.94013C20.0173 3.87418 20.2462 5.01728 20.0298 6.11956C19.8135 7.22184 19.1696 8.19364 18.2388 8.82254H18.2367ZM17.0573 3.52279C16.8259 3.3563 16.5633 3.23809 16.2853 3.17518C16.0072 3.11227 15.7193 3.10595 15.4388 3.1566C15.1583 3.20725 14.8908 3.31383 14.6523 3.47C14.4138 3.62617 14.2091 3.82873 14.0505 4.06562C13.8919 4.30252 13.7826 4.5689 13.7291 4.84892C13.6756 5.12893 13.679 5.41685 13.739 5.69553C13.7991 5.97422 13.9146 6.23796 14.0788 6.47107C14.2429 6.70418 14.4522 6.90188 14.6943 7.05241C15.162 7.33655 15.7214 7.42927 16.2558 7.31126C16.7902 7.19325 17.2585 6.8736 17.563 6.41891C17.8676 5.96422 17.985 5.40955 17.8908 4.87044C17.7966 4.33133 17.498 3.84935 17.0573 3.52491V3.52279ZM22.6036 3.58654C23.2164 3.17429 23.9539 2.98864 24.6889 3.06156C25.4239 3.13448 26.1105 3.46141 26.6304 3.98604C27.0009 4.3595 27.2741 4.81817 27.426 5.32182C27.578 5.82546 27.604 6.35869 27.5018 6.87473C27.3997 7.39078 27.1724 7.87387 26.8401 8.28164C26.5077 8.68941 26.0804 9.0094 25.5956 9.21354C25.0133 9.457 24.3715 9.52113 23.7526 9.39772C23.1336 9.2743 22.5656 8.96896 22.1212 8.52079C21.7872 8.18507 21.5315 7.77968 21.3725 7.33362C21.2135 6.88756 21.155 6.41186 21.2013 5.94057C21.2476 5.46927 21.3975 5.01404 21.6403 4.60745C21.8831 4.20086 22.2127 3.85297 22.6057 3.58866L22.6036 3.58654ZM23.6236 7.00779C23.8231 7.20645 24.0933 7.31772 24.3749 7.31713C24.5143 7.31683 24.6523 7.28908 24.7809 7.23545C24.9096 7.18183 25.0265 7.10339 25.1249 7.0046C25.2232 6.90581 25.3012 6.78862 25.3543 6.65971C25.4073 6.5308 25.4345 6.39269 25.4342 6.25328C25.4339 6.11387 25.4062 5.97589 25.3525 5.8472C25.2989 5.71852 25.2205 5.60166 25.1217 5.50329C24.9238 5.30431 24.6564 5.19001 24.3758 5.18454C24.2357 5.18425 24.0968 5.21175 23.9674 5.26544C23.8379 5.31914 23.7204 5.39796 23.6216 5.49736C23.5228 5.59675 23.4447 5.71475 23.3918 5.84452C23.3388 5.97429 23.3122 6.11327 23.3133 6.25341C23.314 6.53641 23.4253 6.80793 23.6236 7.00991V7.00779ZM5.65455 25.4485H9.5008V27.5842H5.65455C4.98123 27.5781 4.3378 27.3053 3.8653 26.8255C3.39099 26.344 3.12533 25.6952 3.1258 25.0193V21.173C2.8397 21.1635 2.5585 21.096 2.29919 20.9748C2.03988 20.8535 1.80783 20.681 1.61705 20.4675C1.41433 20.2622 1.25524 20.018 1.14934 19.7496C1.04343 19.4812 0.992909 19.1941 1.0008 18.9057V14.2689C1.00718 13.2659 1.40455 12.3075 2.1058 11.5957C2.80493 10.8923 3.75055 10.4907 4.7408 10.4843H8.6508C8.1234 11.1124 7.72612 11.839 7.48205 12.622H4.7408C4.30951 12.6344 3.89915 12.8107 3.5933 13.115C3.29287 13.4239 3.1251 13.838 3.1258 14.2689V19.0119H5.2508V25.0172C5.24587 25.0751 5.25275 25.1333 5.27101 25.1885C5.28928 25.2437 5.31855 25.2945 5.35705 25.338C5.44247 25.4041 5.54664 25.4413 5.65455 25.4443V25.4485ZM21.167 11.5978C20.8193 11.2467 20.4057 10.9678 19.9498 10.777C19.494 10.5863 19.0049 10.4876 18.5108 10.4864H13.2408C12.2502 10.4943 11.3029 10.8939 10.6058 11.5978C9.90455 12.3097 9.50718 13.268 9.5008 14.271V21.0243C9.4978 21.6041 9.71853 22.1628 10.1171 22.584C10.3081 22.7972 10.5402 22.9695 10.7994 23.0908C11.0587 23.212 11.3398 23.2796 11.6258 23.2895V28.2259C11.6238 28.5628 11.6885 28.8968 11.8161 29.2087C11.9438 29.5205 12.1319 29.804 12.3696 30.0428C12.7521 30.3998 13.2344 30.6314 13.7508 30.7058H18.0008C18.5985 30.6273 19.1461 30.3307 19.5384 29.8729C19.9306 29.4152 20.1398 28.8286 20.1258 28.2259V23.2874C20.4119 23.2778 20.6931 23.2104 20.9524 23.0891C21.2117 22.9679 21.4438 22.7953 21.6346 22.5819C21.8371 22.3769 21.9961 22.133 22.102 21.865C22.2079 21.597 22.2585 21.3103 22.2508 21.0222V14.2689C22.2523 13.2705 21.8633 12.3112 21.167 11.5957V11.5978ZM20.1258 21.1284H18.0008V28.2259C17.9987 28.3379 17.953 28.4447 17.8733 28.5234C17.837 28.5663 17.7913 28.6002 17.7396 28.6223C17.688 28.6445 17.6319 28.6543 17.5758 28.6509H14.1546C14.0435 28.6457 13.9384 28.5993 13.8598 28.5207C13.7812 28.4421 13.7347 28.337 13.7296 28.2259V21.1284H11.6258V14.2689C11.6258 13.8375 11.7937 13.4232 12.0933 13.115C12.3992 12.8107 12.8095 12.6344 13.2408 12.622H18.5108C18.8327 12.6277 19.146 12.7273 19.4121 12.9085C19.6782 13.0897 19.8857 13.3446 20.0089 13.642C20.0898 13.841 20.1296 14.0542 20.1258 14.2689V21.1284ZM26.0971 27.582H22.2508V25.4464H26.0758C26.1837 25.4434 26.2879 25.4062 26.3733 25.3402C26.4161 25.2983 26.4496 25.2479 26.4715 25.1923C26.4935 25.1366 26.5035 25.0769 26.5008 25.0172V19.0119H28.6258V14.2689C28.6265 13.838 28.4587 13.4239 28.1583 13.115C27.8524 12.8107 27.4421 12.6344 27.0108 12.622H24.2696C24.0256 11.839 23.6283 11.1123 23.1008 10.4843H27.0108C28.0012 10.4934 28.9481 10.8927 29.6458 11.5957C30.347 12.3075 30.7444 13.2659 30.7508 14.2689V18.9057C30.7508 19.4858 30.5319 20.0425 30.1367 20.4633C29.7414 20.8862 29.2017 21.139 28.6258 21.1709V25.0172C28.6258 25.695 28.3602 26.3432 27.8863 26.8234C27.4138 27.3031 26.7704 27.576 26.0971 27.582ZM7.3758 3.04679C6.74346 3.04605 6.12531 3.23417 5.60057 3.58702C5.07583 3.93988 4.66842 4.44139 4.43055 5.02729C4.19049 5.61298 4.12817 6.25638 4.25136 6.87726C4.37456 7.49813 4.67781 8.069 5.1233 8.51866C5.56863 8.96781 6.13774 9.27401 6.75793 9.39814C7.37812 9.52228 8.02124 9.45872 8.60514 9.21558C9.18903 8.97245 9.68719 8.56077 10.036 8.03314C10.3848 7.50551 10.5684 6.88589 10.5633 6.25341C10.5633 5.40341 10.2276 4.58741 9.6283 3.98604C9.33323 3.68882 8.98233 3.45284 8.59577 3.29165C8.20921 3.13046 7.79462 3.04725 7.3758 3.04679ZM7.3758 7.32229C7.23565 7.32257 7.09684 7.29507 6.96739 7.24138C6.83793 7.18769 6.72041 7.10886 6.6216 7.00947C6.5228 6.91007 6.44468 6.79208 6.39176 6.6623C6.33885 6.53253 6.31218 6.39355 6.3133 6.25341C6.31385 5.9712 6.42577 5.70061 6.62473 5.50046C6.82368 5.30031 7.0936 5.18678 7.3758 5.18454C7.65714 5.18949 7.92548 5.3039 8.12386 5.50346C8.32223 5.70303 8.43503 5.97204 8.4383 6.25341C8.43775 6.53562 8.32583 6.80621 8.12688 7.00636C7.92792 7.20651 7.658 7.32005 7.3758 7.32229Z" fill="#FF7B47"/>
</g>
</svg>
