<svg width="32" height="33" viewBox="0 0 32 33" fill="none" xmlns="http://www.w3.org/2000/svg">
<g id="icn settings .icn-md" clip-path="url(#clip0_964_17543)">
<path id="Vector" d="M29.8154 10.8616L27.8167 13.8679C28.7806 15.7904 29.2525 17.922 29.1901 20.0717C29.1277 22.2214 28.5329 24.322 27.4592 26.1854H4.93666C3.54106 23.7643 2.96277 20.9579 3.28751 18.1824C3.61226 15.4068 4.82277 12.8097 6.73956 10.7762C8.65636 8.74268 11.1774 7.38095 13.929 6.89288C16.6806 6.40482 19.5162 6.81641 22.0154 8.06663L25.0217 6.06788C21.9609 4.10523 18.3304 3.22576 14.7109 3.57015C11.0913 3.91454 7.69176 5.46289 5.05609 7.96752C2.42042 10.4722 0.700875 13.7884 0.172515 17.3857C-0.355844 20.983 0.337506 24.6536 2.14166 27.8104C2.42524 28.3016 2.83243 28.71 3.32276 28.9951C3.81309 29.2802 4.36949 29.432 4.93666 29.4354H27.4429C28.0156 29.4377 28.5787 29.2886 29.0752 29.0032C29.5718 28.7178 29.9841 28.3063 30.2704 27.8104C31.7676 25.2168 32.519 22.2598 32.4416 19.2661C32.3642 16.2723 31.461 13.3581 29.8317 10.8454L29.8154 10.8616ZM13.9067 21.9766C14.2085 22.2788 14.5669 22.5185 14.9615 22.6821C15.356 22.8456 15.7789 22.9298 16.206 22.9298C16.6331 22.9298 17.056 22.8456 17.4506 22.6821C17.8451 22.5185 18.2036 22.2788 18.5054 21.9766L27.7029 8.18038L13.9067 17.3779C13.6045 17.6797 13.3648 18.0382 13.2012 18.4327C13.0377 18.8272 12.9535 19.2502 12.9535 19.6773C12.9535 20.1044 13.0377 20.5273 13.2012 20.9218C13.3648 21.3164 13.6045 21.6748 13.9067 21.9766Z" fill="#FF7B47"/>
</g>
<defs>
<clipPath id="clip0_964_17543">
<rect width="32" height="32" fill="white" transform="translate(0 0.49707)"/>
</clipPath>
</defs>
</svg>
