<svg width="73" height="73" viewBox="0 0 73 73" fill="currentcolor" xmlns="http://www.w3.org/2000/svg">
<path id="Vector" d="M56.929 39.4166C56.5775 39.0645 56.16 38.7851 55.7004 38.5945C55.2408 38.4039 54.7482 38.3058 54.2506 38.3058C53.7531 38.3058 53.2604 38.4039 52.8008 38.5945C52.3413 38.7851 51.9238 39.0645 51.5722 39.4166L45.5335 45.4553C42.7339 44.6218 37.5097 42.7276 34.1987 39.4166C30.8876 36.1055 28.9934 30.8813 28.16 28.0817L34.1987 22.043C34.5508 21.6915 34.8301 21.274 35.0207 20.8144C35.2113 20.3548 35.3094 19.8621 35.3094 19.3646C35.3094 18.8671 35.2113 18.3744 35.0207 17.9148C34.8301 17.4552 34.5508 17.0377 34.1987 16.6862L19.0451 1.53264C18.6936 1.18052 18.2761 0.901173 17.8165 0.710576C17.3569 0.51998 16.8642 0.421875 16.3667 0.421875C15.8692 0.421875 15.3765 0.51998 14.9169 0.710576C14.4573 0.901173 14.0398 1.18052 13.6883 1.53264L3.41418 11.8068C1.97459 13.2463 1.16387 15.2239 1.19418 17.2431C1.28131 22.6378 2.70954 41.3752 17.4767 56.1423C32.2439 70.9095 50.9813 72.3339 56.3797 72.4248H56.4858C58.4861 72.4248 60.3765 71.6368 61.8085 70.2048L72.0826 59.9307C72.4347 59.5792 72.7141 59.1617 72.9047 58.7021C73.0953 58.2425 73.1934 57.7499 73.1934 57.2523C73.1934 56.7548 73.0953 56.2621 72.9047 55.8025C72.7141 55.3429 72.4347 54.9254 72.0826 54.5739L56.929 39.4166ZM56.4479 64.8443C51.72 64.7647 35.5435 63.4956 22.8335 50.7817C10.0818 38.03 8.84674 21.7968 8.77097 17.1635L16.3667 9.56782L26.1635 19.3646L21.2651 24.263C20.8198 24.7079 20.4924 25.2568 20.3125 25.8601C20.1326 26.4633 20.1058 27.1018 20.2346 27.718C20.3256 28.1537 22.5494 38.4846 28.8381 44.7734C35.1268 51.0621 45.4578 53.2859 45.8934 53.3768C46.5092 53.5092 47.1484 53.4846 47.7522 53.3052C48.356 53.1258 48.9049 52.7974 49.3485 52.3501L54.2506 47.4517L64.0474 57.2485L56.4479 64.8443Z"/>
</svg>
