<svg width="57" height="72" viewBox="0 0 57 72" fill="currentcolor" xmlns="http://www.w3.org/2000/svg">
<path d="M28.5 42.3979C36.4968 42.3979 43 36.1189 43 28.3979C43 20.6769 36.4968 14.3979 28.5 14.3979C20.5033 14.3979 14 20.6769 14 28.3979C14 36.1189 20.5033 42.3979 28.5 42.3979ZM28.5 21.3979C32.4984 21.3979 35.75 24.5374 35.75 28.3979C35.75 32.2584 32.4984 35.3979 28.5 35.3979C24.5016 35.3979 21.25 32.2584 21.25 28.3979C21.25 24.5374 24.5016 21.3979 28.5 21.3979Z"/>
<path d="M26.4338 70.7382C27.0367 71.1673 27.7591 71.3979 28.5 71.3979C29.2409 71.3979 29.9633 71.1673 30.5662 70.7382C31.6492 69.975 57.103 51.6604 56.9997 28.7982C56.9997 13.139 44.214 0.397949 28.5 0.397949C12.786 0.397949 0.000313631 13.139 0.000313631 28.7804C-0.102998 51.6604 25.3508 69.975 26.4338 70.7382ZM28.5 7.49801C40.2882 7.49801 49.8748 17.0511 49.8748 28.8159C49.9496 44.571 34.2427 58.7178 28.5 63.3577C22.7609 58.7143 7.05042 44.5639 7.12524 28.7982C7.12524 17.0511 16.7118 7.49801 28.5 7.49801Z"/>
</svg>
