<svg width="73" height="73" viewBox="0 0 73 73" fill="currentcolor" xmlns="http://www.w3.org/2000/svg">
<path id="Vector" d="M70.3484 2.58386C69.9592 2.1809 69.4674 1.90191 68.9308 1.77968C68.3943 1.65746 67.8354 1.69708 67.3198 1.8939L3.8615 25.8927C3.31422 26.1086 2.84305 26.4925 2.51056 26.9935C2.17807 27.4945 2 28.0888 2 28.6975C2 29.3063 2.17807 29.9006 2.51056 30.4016C2.84305 30.9026 3.31422 31.2865 3.8615 31.5024L31.5524 43.0218L42.6287 71.8203C42.8368 72.3645 43.1935 72.8334 43.6549 73.1692C44.1162 73.505 44.6619 73.6931 45.2248 73.7102C45.8077 73.6978 46.3733 73.5019 46.847 73.1485C47.3207 72.795 47.6804 72.3006 47.8785 71.7303L70.9542 5.7337C71.1507 5.20296 71.1981 4.62505 71.0909 4.06736C70.9836 3.50967 70.7261 2.99517 70.3484 2.58386ZM45.2248 62.3108L37.1771 41.3119L50.9937 26.9426L46.9266 22.7128L32.9946 37.2021L12.9187 28.7125L63.4834 9.7235L45.2248 62.3108Z"/>
</svg>
